<?xml version="1.0" encoding="utf-8"?>
<!-- Generator: Adobe Illustrator 16.0.0, SVG Export Plug-In . SVG Version: 6.00 Build 0)  -->
<!DOCTYPE svg PUBLIC "-//W3C//DTD SVG 1.1//EN" "http://www.w3.org/Graphics/SVG/1.1/DTD/svg11.dtd">
<svg version="1.1" id="Layer_1" xmlns="http://www.w3.org/2000/svg" xmlns:xlink="http://www.w3.org/1999/xlink" x="0px" y="0px"
	 width="414.98px" height="365.113px" viewBox="0 0 414.98 365.113" enable-background="new 0 0 414.98 365.113"
	 xml:space="preserve">
<path fill="#FFFFFF" d="M412.687,240.519c-10.437-3.232-20.7-5.357-30.657-6.66c7.307-25.487,6.632-56.165-7.895-93.734
	c24.516-44.47,13.889-125.242,13.398-128.822c-0.579-4.447-3.434-8.271-7.512-10.118c-4.103-1.886-8.843-1.491-12.596,0.981
	l-80.225,52.957c-22.853-10.283-53.306-16.526-81.598-16.526c-28.594,0-57.62,6.015-80.913,16.628L38.478,1.961
	c-3.746-2.319-8.384-2.599-12.437-0.701c-3.975,1.886-6.753,5.658-7.339,10.042c-0.459,3.351-10.475,79.803,16.896,129.039
	c-12.863,37.793-13.334,68.412-5.976,93.96c-8.913,1.329-18.056,3.342-27.332,6.219c-1.733,0.535-2.676,2.345-2.141,4.077
	c0.535,1.733,2.396,2.701,4.077,2.141c9.289-2.876,18.464-4.828,27.421-6.09c2.115,6.043,4.67,11.799,7.62,17.278
	c-10.257,2.911-20.445,6.791-30.556,11.697c-1.631,0.79-2.293,2.727-1.504,4.357c0.561,1.149,1.708,1.835,2.931,1.835
	c0.484,0,0.968-0.103,1.426-0.332c10.271-4.973,20.624-8.868,31.047-11.713c2.714,4.466,5.683,8.751,8.875,12.869
	c-9.136,4.361-18.343,10.303-27.332,18.365c-1.325,1.197-1.427,3.263-0.255,4.612c0.663,0.714,1.555,1.07,2.447,1.07
	c0.764,0,1.554-0.277,2.192-0.841c8.951-8.041,18.087-13.876,27.102-18.059c17.457,20.68,40.284,37.194,63.035,52.004
	c17.941,11.696,53.134,31.32,86.927,31.32c26.635,0,61.542-12.386,88.938-31.575c19.808-13.898,43.654-30.646,62.118-52.938
	c9.882,4.243,19.941,10.411,29.778,19.247c0.644,0.563,1.401,0.841,2.191,0.841c0.898,0,1.783-0.356,2.421-1.07
	c1.204-1.351,1.096-3.415-0.229-4.612c-9.875-8.855-20.018-15.176-30.021-19.623c3.007-3.959,5.811-8.104,8.41-12.41
	c11.493,2.896,22.903,7.036,34.206,12.512c0.452,0.229,0.942,0.332,1.421,0.332c1.197,0,2.377-0.686,2.931-1.835
	c0.797-1.631,0.108-3.567-1.497-4.357c-11.149-5.399-22.395-9.557-33.716-12.541c2.861-5.355,5.39-10.962,7.467-16.88
	c9.989,1.22,20.292,3.303,30.733,6.535c1.733,0.536,3.536-0.406,4.077-2.14C415.369,242.864,414.401,241.055,412.687,240.519z"/>
</svg>
