<?xml version="1.0" encoding="utf-8"?>
<!DOCTYPE svg PUBLIC "-//W3C//DTD SVG 1.1//EN" "http://www.w3.org/Graphics/SVG/1.1/DTD/svg11.dtd">
<svg version="1.1" xmlns="http://www.w3.org/2000/svg" xmlns:xlink="http://www.w3.org/1999/xlink" x="0px" y="0px" width="1100px"
	 height="200px" viewBox="0 0 1100 200" enable-background="new 0 0 1100 200" xml:space="preserve">
<g>
	<g>
		<path fill="none" d="M332.855,53.426H312v18h45.762C356.575,59.308,348.284,53.426,332.855,53.426z"/>
		<path fill="none" d="M742.057,52.697c-13.092,0-23.178,4.404-30.256,13.209c-1.398,1.739-2.652,3.582-3.774,5.52h68.06
			c-1.122-1.938-2.376-3.781-3.773-5.52C765.23,57.101,755.146,52.697,742.057,52.697z"/>
		<path fill="none" d="M742.057,147.302c13.089,0,23.174-4.401,30.256-13.209c2.36-2.936,4.317-6.163,5.892-9.667h-72.296
			c1.573,3.505,3.531,6.732,5.893,9.667C718.879,142.901,728.965,147.302,742.057,147.302z"/>
		<path fill="none" d="M867.005,143.643c4.521,2.44,10.112,3.659,16.778,3.659c6.664,0,12.256-1.219,16.779-3.659
			c4.521-2.438,7.883-5.949,10.086-10.532c1.352-2.815,2.456-5.711,3.314-8.686h-60.359c0.858,2.974,1.962,5.87,3.316,8.686
			C859.12,137.694,862.48,141.205,867.005,143.643z"/>
		<path fill="#FFFFFF" d="M85.181,69.183c0-5.553,2.655-9.689,7.971-12.408c5.313-2.717,11.433-4.078,18.36-4.078
			c9.517,0,21.529,3.743,36.043,11.223l1.947-19.878c-3.807-2.284-9.396-4.359-16.771-6.222c-7.374-1.863-14.924-2.794-22.653-2.794
			c-8.013,0-15.052,1.135-21.119,3.405c-6.069,2.27-10.721,5.285-13.962,9.048c-3.241,3.765-5.625,7.678-7.157,11.739
			c-1.491,3.956-2.249,8.025-2.288,12.208h19.813C85.256,70.702,85.181,69.961,85.181,69.183z"/>
		<path fill="#FFFFFF" d="M135.875,130.01c0,6.063-2.538,10.459-7.614,13.192s-11.672,4.1-19.794,4.1
			c-15.337,0-28.253-4.214-38.751-12.648l-2.259,21.93c9.662,5.595,23.213,8.39,40.654,8.39c10.096,0,18.592-1.16,25.483-3.478
			c6.889-2.318,11.878-5.408,14.969-9.273c3.088-3.863,5.196-7.578,6.326-11.145c1.127-3.564,1.693-7.369,1.693-11.413
			c0-1.815-0.12-3.558-0.343-5.238h-21.374C135.536,126.167,135.875,128.028,135.875,130.01z"/>
		<rect x="211" y="124.426" fill="#FFFFFF" width="19" height="38"/>
		<polygon fill="#FFFFFF" points="230,55.426 266,55.426 266,37.426 175,37.426 175,55.426 211,55.426 211,71.426 230,71.426 		"/>
		<polygon fill="#FFFFFF" points="363.605,162.426 384.345,162.426 363.463,124.426 342.713,124.426 		"/>
		<rect x="292" y="124.426" fill="#FFFFFF" width="20" height="38"/>
		<path fill="#FFFFFF" d="M312,53.426h20.855c15.429,0,23.72,5.882,24.906,18h19.746c-0.472-11.763-4.194-20.312-11.169-25.539
			c-7.48-5.606-18.051-8.461-31.706-8.461H292v34h20V53.426z"/>
		<rect x="410" y="37.426" fill="#FFFFFF" width="19" height="34"/>
		<rect x="410" y="124.426" fill="#FFFFFF" width="19" height="38"/>
		<rect x="466" y="37.426" fill="#FFFFFF" width="19" height="34"/>
		<rect x="466" y="124.426" fill="#FFFFFF" width="19" height="38"/>
		<polygon fill="#FFFFFF" points="536.781,162.426 557.488,162.426 531.438,124.426 510.732,124.426 		"/>
		<polygon fill="#FFFFFF" points="557.488,37.426 536.781,37.426 510.611,71.426 531.314,71.426 		"/>
		<polygon fill="#FFFFFF" points="600,55.426 659,55.426 659,37.426 581,37.426 581,71.426 600,71.426 		"/>
		<polygon fill="#FFFFFF" points="581,162.426 660,162.426 660,144.426 600,144.426 600,124.426 581,124.426 		"/>
		<path fill="#FFFFFF" d="M772.312,134.093c-7.082,8.808-17.167,13.209-30.256,13.209c-13.092,0-23.178-4.401-30.256-13.209
			c-2.361-2.936-4.319-6.163-5.893-9.667h-21.801c2.851,8.681,7.37,16.253,13.592,22.698c11.482,11.901,26.268,17.85,44.357,17.85
			c18.087,0,32.871-5.949,44.357-17.85c6.22-6.445,10.74-14.017,13.591-22.698h-21.801
			C776.63,127.931,774.673,131.158,772.312,134.093z"/>
		<path fill="#FFFFFF" d="M711.801,65.906c7.078-8.805,17.164-13.209,30.256-13.209c13.089,0,23.174,4.404,30.256,13.209
			c1.397,1.739,2.651,3.582,3.773,5.52h22.396c-2.847-6.964-6.86-13.153-12.068-18.55c-11.486-11.898-26.271-17.85-44.357-17.85
			c-18.09,0-32.875,5.952-44.357,17.85c-5.209,5.397-9.224,11.586-12.069,18.55h22.396
			C709.148,69.488,710.402,67.645,711.801,65.906z"/>
		<rect x="832" y="37.426" fill="#FFFFFF" width="19" height="34"/>
		<path fill="#FFFFFF" d="M910.648,133.111c-2.203,4.583-5.564,8.094-10.086,10.532c-4.523,2.44-10.115,3.659-16.779,3.659
			c-6.666,0-12.258-1.219-16.778-3.659c-4.524-2.438-7.885-5.949-10.085-10.532c-1.354-2.815-2.458-5.711-3.316-8.686H833.27
			c1.857,10.436,5.782,19.044,11.779,25.822c8.686,9.817,21.599,14.726,38.734,14.726c17.137,0,30.047-4.909,38.734-14.726
			c5.996-6.778,9.922-15.386,11.779-25.822h-20.334C913.104,127.4,912,130.296,910.648,133.111z"/>
		<rect x="917" y="37.426" fill="#FFFFFF" width="19" height="34"/>
		<rect x="996" y="124.426" fill="#FFFFFF" width="19" height="38"/>
		<polygon fill="#FFFFFF" points="1015,55.426 1052,55.426 1052,37.426 960,37.426 960,55.426 996,55.426 996,71.426 1015,71.426
			"/>
	</g>
	<rect x="29" y="90.426" fill="#FFFFFF" width="1042" height="19"/>
</g>
</svg>